<svg width="451" height="451" viewBox="0 0 451 451" fill="none" xmlns="http://www.w3.org/2000/svg">
<g clip-path="url(#clip0)">
<path d="M444.038 44.8043C438.526 38.0672 430.275 34.3545 420.802 34.3545C415.648 34.3545 410.194 35.4418 404.586 37.582L22.8204 183.312C2.5607 191.044 -0.167893 202.646 0.00758953 208.878C0.183072 215.105 3.56542 226.536 24.2311 233.108C24.355 233.149 24.4789 233.184 24.6027 233.222L78.1423 248.54L338.89 115.328C345.386 112.004 353.348 114.585 356.668 121.084C359.277 126.191 358.231 132.191 354.514 136.142L354.525 136.152L209.548 290.195L205.412 306.955L257.183 348.645L328.925 406.413C328.987 406.461 329.049 406.513 329.114 406.561C337.007 412.686 345.63 415.92 354.05 415.923C370.504 415.923 383.603 403.746 387.419 384.904L449.97 76.0403C452.479 63.6464 450.373 52.5497 444.038 44.8043Z" fill="#E5B24C"/>
<path d="M184.729 280.499C185.256 278.362 186.315 276.325 187.929 274.608L283.059 173.526L106.532 263.711L146.615 378.343C148.899 384.874 152.299 390.435 156.504 394.787L184.722 280.496L184.729 280.499Z" fill="#E5B24C"/>
<path d="M181.105 405.398C190.633 405.319 199.996 401.3 208.199 393.747L237.525 366.744L198.423 335.26L181.105 405.398Z" fill="#E5B24C"/>
</g>
<defs>
<clipPath id="clip0">
<rect width="451" height="451" fill="white"/>
</clipPath>
</defs>
</svg>
